<svg
  width="256"
  height="256"
  viewBox="0 0 386 367"
  xmlns="http://www.w3.org/2000/svg"
  role="img"
  aria-label="BookMyVenue"
>
  <g transform="translate(0.000000,367.000000) scale(0.100000,-0.100000)">
    <path
      d="M1442 3533 c-50 -25 -75 -67 -114 -193 -119 -385 -182 -588 -239
        -770 -22 -69 -55 -174 -74 -235 -75 -239 -166 -531 -171 -545 -3 -8 -27 -87
        -54 -175 -27 -88 -62 -201 -79 -251 -16 -50 -34 -111 -41 -135 -6 -24 -15 -53
        -20 -64 -4 -11 -27 -81 -50 -155 -22 -74 -45 -145 -50 -158 -16 -37 -11 -114
        10 -159 17 -39 94 -103 124 -103 5 0 93 -27 195 -61 208 -67 218 -67 240 -1
        55 166 236 263 412 222 84 -20 185 -102 221 -180 28 -63 35 -166 14 -229 -25
        -77 -22 -87 27 -104 161 -57 196 -68 225 -70 18 -1 32 -5 32 -9 0 -8 160 -58
        187 -58 34 0 106 29 131 53 36 33 50 65 114 262 209 642 310 950 463 1410 366
        1104 341 1014 304 1095 -36 79 -34 78 -309 169 -244 80 -256 82 -271 44 -44
        -108 -104 -179 -189 -221 -47 -23 -67 -27 -145 -27 -152 0 -248 62 -312 201
        -26 57 -28 127 -7 260 8 52 3 56 -142 104 -66 21 -158 52 -206 69 -100 35
        -174 40 -226 14z"
      fill="#E50107"
    />
    <path
      d="M1799 2357 c-42 -23 -89 -50 -105 -59 -16 -10 -47 -27 -69 -38 -22
        -11 -58 -31 -80 -43 -22 -13 -76 -43 -120 -66 -44 -24 -84 -47 -90 -51 -11 -8
        -117 -67 -157 -88 -21 -10 -28 -21 -28 -42 0 -49 18 -55 199 -60 l166 -5 0
        -355 c0 -225 4 -358 10 -362 6 -4 37 -8 70 -8 33 0 65 4 70 8 6 4 10 109 10
        277 l0 270 27 41 c46 72 80 89 174 89 73 0 84 -3 117 -28 72 -55 79 -83 79
        -316 1 -113 -3 -234 -7 -268 l-7 -62 37 -7 c35 -6 133 0 142 10 3 3 1 42 -5
        88 -9 71 -8 503 0 593 l3 30 169 3 c142 2 173 5 188 19 34 31 19 64 -47 102
        -33 19 -107 62 -165 95 -58 34 -121 70 -140 80 -19 11 -37 22 -40 25 -3 3 -23
        15 -45 27 -22 11 -90 48 -151 82 -61 34 -115 62 -120 62 -5 0 -43 -19 -85 -43z
        m149 -115 c15 -11 72 -43 127 -72 55 -29 141 -76 190 -104 50 -28 111 -63 138
        -76 26 -14 45 -29 44 -35 -2 -5 -37 -10 -78 -10 -74 0 -75 0 -274 99 -109 55
        -206 99 -215 99 -16 -1 -193 -83 -342 -159 -90 -45 -121 -51 -203 -35 l-40 7
        35 22 c19 12 39 22 43 22 5 0 39 17 75 39 37 21 105 59 152 84 47 25 126 68
        175 96 97 54 123 58 173 23z M1240 1853 c-1 -4 0 -135 0 -290 1 -276 0 -282 -20 -293 -17 -9 -20
        -19 -18 -48 l3 -37 55 -3 c30 -2 79 -1 108 3 49 6 52 8 52 35 0 18 -8 34 -20
        43 -20 14 -21 23 -20 303 l2 289 -71 3 c-39 2 -71 -1 -71 -5z M2340 1851 c0 -6 5 -13 10 -16 6 -4 10 -109 10 -283 0 -265 -1 -278
        -20 -295 -25 -21 -26 -53 -1 -67 21 -11 142 -14 179 -4 30 8 31 62 1 88 -21
        17 -21 23 -18 302 l4 284 -82 0 c-46 0 -83 -4 -83 -9z"
      fill="#FFFFFF"
    />
  </g>
</svg>